<svg xmlns="http://www.w3.org/2000/svg" viewBox="0 0 84.83 86.93"><title>hvasshannibal-sale</title><g id="Lag_2" data-name="Lag 2"><g id="Lag_1-2" data-name="Lag 1"><path d="M81.63,13.89a9.91,9.91,0,0,0,1-4.78,5,5,0,0,0-1.47-3,4.16,4.16,0,0,0-2.91-1.44,3.73,3.73,0,0,0-2.58,1.14,4.05,4.05,0,0,0-1.21,3.57,17.54,17.54,0,0,0,1.22,4.21,15.06,15.06,0,0,1,1.17,4.73A5.71,5.71,0,0,1,75,22.81a5.44,5.44,0,0,1-5,1.65,9.58,9.58,0,0,1-4.78-2.88,16,16,0,0,1-1.92-2.4,20.6,20.6,0,0,1-1.41-2.65l3.06-3.82.24.11a10.88,10.88,0,0,0-.87,5.08,6,6,0,0,0,1.84,3.78,4.76,4.76,0,0,0,3.39,1.67A4.39,4.39,0,0,0,72.61,22a4.59,4.59,0,0,0,1.51-3.69,12.32,12.32,0,0,0-1-4.09,19.12,19.12,0,0,1-1.23-4.7,5.11,5.11,0,0,1,1.64-4.33,4.8,4.8,0,0,1,4.31-1.47,8,8,0,0,1,4.25,2.47,12.54,12.54,0,0,1,1.63,2.05,12.81,12.81,0,0,1,1.12,2l-3,3.74Z"/><path d="M71.87,62.15l0,0a7.45,7.45,0,0,0,.26,2.28c.21.65.53,1.48,1,2.48l7.52,17.52-.52.5-17.4-8.54a18.42,18.42,0,0,0-2.58-1.1,5.47,5.47,0,0,0-1.84-.19l0,0,3.45-3.28,0,0a2.93,2.93,0,0,0,.79,1.4,7.59,7.59,0,0,0,2.13,1.49l3.92,2,5.67-5.4L72.85,68A6.26,6.26,0,0,0,71,65.43a3.8,3.8,0,0,0-1.76-.72l0,0Zm2.64,9.74L69.17,77l9.62,4.79Z"/><path d="M22.57,72.16a6.62,6.62,0,0,0-2.13.64,8.37,8.37,0,0,0-2,1.47L8.91,83A10.19,10.19,0,0,0,7.3,84.8a8.12,8.12,0,0,0-.86,2.09l0,0L3.12,83.34l0,0a7.27,7.27,0,0,0,2.15-.67,8,8,0,0,0,1.93-1.44L19.81,69.72,16,65.85a4.88,4.88,0,0,0-3.09-1.29,14.85,14.85,0,0,0-4.26.36l-.1-.23,4.88-2.63,9.18,10.06Z"/><path d="M14.67,25.18l-.05,0a11.78,11.78,0,0,0-.69-2.08,6.93,6.93,0,0,0-1.2-1.79l-9-10.09A7.09,7.09,0,0,0,2,9.79a10,10,0,0,0-2-.91l0-.05L9.85,0l4.07,2.79L13.81,3c-1.21-.18-2.38-.35-3.5-.53a3.64,3.64,0,0,0-2.43.21L3.05,6.75,9.82,14.3l2.81-2.53a2.31,2.31,0,0,0,.48-1.8c-.07-.8-.15-1.54-.24-2.24l.18-.16,4.09,4.55-.18.16c-.63-.1-1.34-.23-2.11-.37a2.38,2.38,0,0,0-1.82.31l-2.81,2.52,6.85,7.64,4.73-4.52A4.7,4.7,0,0,0,23,14.74a23.61,23.61,0,0,0-.24-4.18l.24-.09,2.6,4.88Z"/></g></g></svg>