<svg xmlns="http://www.w3.org/2000/svg" width="124" height="20" viewBox="0 0 124 20"><defs><clipPath id="a"><path data-name="사각형 339" d="M0 0h124v18.576H0z" fill="none"/></clipPath></defs><path d="M0 0h124v20H0z" opacity=".1" fill="none"/><g data-name="그룹 487"><path data-name="패스 8142" d="M21.259 1.229l-4.145 14.484L12.6 1.229h-1.964l-4.49 14.484L1.978 1.229H0l5.088 17.543h1.993L11.63 4.201l4.526 14.571h1.993l5.088-17.543z"/><g data-name="그룹 486"><g data-name="그룹 485" transform="translate(0 .712)" clip-path="url(#a)"><path data-name="패스 8143" d="M57.384 12.923c0 3.109-2.532 5.139-5.665 5.139h-7.37V.514h6.868c3.058 0 5.54 1.98 5.54 5.014a4.392 4.392 0 01-1.529 3.434 4.531 4.531 0 012.156 3.961M48.36 4.275v3.108h2.858a1.481 1.481 0 001.529-1.554 1.467 1.467 0 00-1.529-1.554zm5.018 8.348a1.585 1.585 0 00-1.654-1.679h-3.359v3.359h3.359a1.586 1.586 0 001.654-1.68"/><path data-name="패스 8144" d="M72.927 14.2v3.859H61.604V.516h4.01V14.2z"/><path data-name="사각형 338" d="M78.084.517h4.043V18.06h-4.043z"/><path data-name="패스 8145" d="M102.084.52v17.536h-3.033L91.482 8.48v9.576h-4.041V.52h3.032l7.569 9.452V.52z"/><path data-name="패스 8146" d="M38.723 2.324V.517h-10.8V18.06h10.8v-1.807h-8.916v-6.184h8.747V8.261h-8.747V2.324z"/><path data-name="패스 8147" d="M124 9.3c0 5.964-3.483 9.274-8.336 9.274a9.28 9.28 0 01-9.361-9.331A8.993 8.993 0 01115.184 0a8.867 8.867 0 017.577 3.962l-3.189 1.829a4.756 4.756 0 00-4.155-1.928 5.209 5.209 0 00-5.155 5.407c0 2.947 1.873 5.443 5.241 5.443 2.791 0 4.308-1.77 4.433-3.637h-4.631v-3.26h8.637z"/></g></g></g></svg>