<svg xmlns="http://www.w3.org/2000/svg" width="220" height="100" viewBox="0 0 220 100"><path d="M0 0h220v100H0z" fill="none"/><g data-name="그룹 494"><path data-name="패스 36" d="M212.894 58.324V31.03a5 5 0 00-5-5h-2.91c-.106 0-.212.007-.316.013a3.388 3.388 0 00-2.45-1.046h-2.91a3.405 3.405 0 00-1.115.189 32.741 32.741 0 01-10.1 1.768 3.4 3.4 0 00-3.314 3.4v4.865c0 .107.006.212.015.315h-.028a14.7 14.7 0 00-10.348 4.058 13.957 13.957 0 00-9.218-3.025h-.077a14.2 14.2 0 00-5.6-1.037 16.841 16.841 0 00-6.011 1.081 3.377 3.377 0 00-2.164-.779h-3.958a3.4 3.4 0 00-1.252.239 23.938 23.938 0 01-6.817 1.564 4.975 4.975 0 00-2.657-.77h-3.237a3.386 3.386 0 00-2.438-1.033h-4.514a3.368 3.368 0 00-1.279.251 20.79 20.79 0 01-3.253 1.011 4.986 4.986 0 00-1.479-.229h-3.242a3.384 3.384 0 00-2.434-1.033h-4.514a3.393 3.393 0 00-1.252.239 24.947 24.947 0 01-8.372 1.669 3.374 3.374 0 00-2.1.859 21.845 21.845 0 00-8.461-2.002 21.6 21.6 0 00-6.855-1.062 19.675 19.675 0 00-10.548 2.8 10.989 10.989 0 00-6.044-1.765c-.383 0-.792.019-1.22.059a9.458 9.458 0 00-4.454-1.094 11.12 11.12 0 00-4.7 1.01 3.386 3.386 0 00-2.077-.708h-3.756a3.388 3.388 0 00-1.289.254 23.333 23.333 0 01-8.79 1.652 3.387 3.387 0 00-2.472 1.121 21.618 21.618 0 00-8.984-2.267 21.6 21.6 0 00-6.855-1.062C11.251 35.533 4 42.462 4 52.775c0 6.644 3.047 11.873 8.127 14.732 3.445 4.186 8.888 6.64 15.591 6.64a20.585 20.585 0 0013.525-4.507 4.992 4.992 0 004.833 3.757h16.905a5 5 0 005-5v-5.466c0-.132-.019-.26-.029-.389a15.5 15.5 0 005.368 4.965c3.445 4.186 8.888 6.64 15.591 6.64 6.756 0 12.236-2.48 15.685-6.707a9.762 9.762 0 002.139 1.2c2.905 4.353 7.828 5.206 11.222 5.206a19.234 19.234 0 006.034-.909 4.989 4.989 0 002.092.457h13.494a4.979 4.979 0 002.006-.422 4.968 4.968 0 002.006.422h16a5 5 0 011.1 0h16a4.994 4.994 0 004.385-2.6 16.228 16.228 0 009.567 3.052 16.709 16.709 0 005.04-.706 5.042 5.042 0 001.581.254h13.694a5 5 0 005-5v-5.463a5 5 0 00-3.06-4.607" fill="#040405"/><path data-name="패스 37" d="M22.044 66.524c-8.979 0-14.647-5.422-14.647-13.749 0-8.376 5.668-13.843 14.647-13.843s14.7 5.416 14.7 13.843c0 8.378-5.719 13.744-14.7 13.744" fill="#fff"/><path data-name="패스 38" d="M61.871 49.565a3.955 3.955 0 01-2.81-1.053c-1.156-1.054-1.856-2.056-2.956-2.056-1.255 0-1.706 1.153-1.706 3.512v8.275c0 2.508.151 3.161 2.91 3.21v4.315H40.405v-4.316c2.759-.049 2.859-.7 2.859-3.21v-9.611c0-2.459-.1-3.161-2.859-3.21v-4.283a26.86 26.86 0 0010.031-1.906h3.762v3.21a8.607 8.607 0 016.772-3.51 5.5 5.5 0 015.718 5.416 4.89 4.89 0 01-4.816 5.217" fill="#fff"/><path data-name="패스 39" d="M83.235 66.524c-8.976 0-14.647-5.422-14.647-13.749 0-8.376 5.668-13.843 14.647-13.843s14.7 5.416 14.7 13.843c0 8.378-5.719 13.744-14.7 13.744" fill="#fff"/><path data-name="패스 40" d="M22.045 46.664c-2.157 0-3.01 1.983-3.01 6.061 0 4.041.853 6.061 3.01 6.061 2.208 0 3.06-2.02 3.06-6.061 0-4.079-.853-6.061-3.06-6.061" fill="#040405"/><path data-name="패스 41" d="M83.234 46.664c-2.157 0-3.01 1.983-3.01 6.061 0 4.041.853 6.061 3.01 6.061 2.208 0 3.06-2.02 3.06-6.061 0-4.079-.853-6.061-3.06-6.061" fill="#040405"/><path data-name="패스 42" d="M120.406 65.767V63.71a13.518 13.518 0 01-8.125 2.507c-6.07 0-8.629-3.059-8.629-9.68v-7.886c0-2.459-.1-3.161-2.859-3.21v-4.3a28.224 28.224 0 009.48-1.906h4.515v16.249c0 2.457.5 3.561 2.257 3.561a4.73 4.73 0 002.759-1.2v-8.028c0-2.459-.1-3.161-2.859-3.211v-5.468a28.049 28.049 0 009.531-1.906h4.514v19.01c0 2.508.1 3.159 2.91 3.21v4.315z" fill="#fff"/><path data-name="패스 43" d="M191.59 65.766v-1.654a10.068 10.068 0 01-6.621 2.108c-6.821 0-12.139-5.668-12.139-14 0-7.925 5.066-13.292 11.939-13.292a11.812 11.812 0 016.37 1.855v-2.954c0-2.459-.151-3.11-2.959-3.161v-4.316a35.962 35.962 0 0011.135-1.957h2.91v29.847c0 2.559.2 3.161 3.059 3.21v4.315zm-.451-19.914a6.09 6.09 0 00-2.759-.7c-2.659 0-3.863 2.408-3.863 7.273 0 4.916 1.2 7.323 3.863 7.323a6.8 6.8 0 002.759-.7z" fill="#fff"/><path data-name="패스 44" d="M171.017 61.451c-2.81-.051-2.959-.7-2.959-3.21v-9.529c0-6.621-2.509-9.782-8.529-9.782a14.291 14.291 0 00-8.175 2.608v-2.306h-3.967a28.233 28.233 0 01-9.482 1.906v4.317c2.759.051 2.859.753 2.859 3.21v9.577c0 2.508-.1 3.159-2.859 3.21v4.315h15.482v-4.344c-1.281-.132-1.482-.819-1.482-2.382V46.755a5.11 5.11 0 012.759-1.153c1.755 0 2.257 1.053 2.257 3.512v9.93c0 1.553-.16 2.242-1.378 2.38v4.343h15.474z" fill="#fff"/></g></svg>