<svg xmlns="http://www.w3.org/2000/svg" width="220" height="100" viewBox="0 0 220 100"><path d="M0 0h220v100H0z" fill="none"/><g data-name="그룹 493"><path data-name="패스 14" d="M50.507 4.073A26.507 26.507 0 1077.014 30.58 26.507 26.507 0 0050.507 4.073" fill="#ffcd53"/><path data-name="패스 15" d="M130.014 30.611a17.358 17.358 0 015.838-12.989V4.042H82.837v13.58a17.362 17.362 0 010 25.971v13.46h53.015v-13.46a17.358 17.358 0 01-5.837-12.985" fill="#2c82e8"/><path data-name="사각형 2" d="M143.061 4h53.098v53.098h-53.098z" fill="#2c82e8"/><path data-name="패스 16" d="M25.797 85.602a9.1 9.1 0 015.819-8.6 10.568 10.568 0 013.945-.715 10.594 10.594 0 013.933.715 9.305 9.305 0 013.1 1.978 9.058 9.058 0 012.026 2.963 9.606 9.606 0 010 7.328 9.053 9.053 0 01-2.028 2.958 9.306 9.306 0 01-3.1 1.978 10.569 10.569 0 01-3.933.715 10.544 10.544 0 01-3.945-.715 9.131 9.131 0 01-5.819-8.6m4.8 0a4.7 4.7 0 00.4 1.944 4.948 4.948 0 001.077 1.546 4.857 4.857 0 001.581 1.018 5.2 5.2 0 003.817 0 4.977 4.977 0 001.592-1.018 4.816 4.816 0 001.088-1.546 4.934 4.934 0 000-3.887 4.811 4.811 0 00-1.088-1.545A5 5 0 0037.47 81.1a5.2 5.2 0 00-3.817 0 4.882 4.882 0 00-1.581 1.019 4.942 4.942 0 00-1.08 1.54 4.7 4.7 0 00-.4 1.944" fill="#ffcd53"/><path data-name="패스 17" d="M53.086 83.589h6.626v-6.813h4.589v17.655h-4.588V87.15h-6.627v7.281h-4.589V76.776h4.589z" fill="#ffcd53"/><path data-name="패스 18" d="M160.191 94.43l3-17.655h4.543l3.536 9.414 3.511-9.414h4.542l3 17.655h-4.566l-1.522-10.161-4.169 10.161h-1.825l-3.958-10.161-1.522 10.161z" fill="#2c82e8"/><path data-name="패스 19" d="M196.159 80.662h-5.455v2.95h5.152v3.887h-5.152v3.043h5.455v3.887h-10.044V76.776h10.044z" fill="#2c82e8"/><path data-name="패스 20" d="M77.475 94.43h-4.589V76.776h7.305a6.247 6.247 0 014.554 1.546 6.789 6.789 0 010 8.709 6.247 6.247 0 01-4.554 1.545h-2.716zm0-9.553h1.522q2.528 0 2.529-2.2t-2.529-2.2h-1.522z" fill="#2c82e8"/><path data-name="패스 21" d="M104.223 94.429H98.51l-4.378-6.789v6.789h-4.59V76.776h7.144a6.992 6.992 0 012.574.434 4.847 4.847 0 012.892 2.915 6.041 6.041 0 01.363 2.107 5.189 5.189 0 01-.971 3.266 4.91 4.91 0 01-2.869 1.7zm-10.092-9.763h.867a3.347 3.347 0 002.083-.563 2.159 2.159 0 000-3.23 3.347 3.347 0 00-2.083-.561h-.867z" fill="#2c82e8"/><path data-name="사각형 3" d="M107.035 76.775h4.589V94.43h-4.589z" fill="#2c82e8"/><path data-name="패스 22" d="M115.569 94.43V76.776h4.59l8.475 10.8v-10.8h4.566v17.655h-4.566l-8.475-10.795V94.43z" fill="#2c82e8"/><path data-name="패스 23" d="M145.137 80.662V94.43h-4.589V80.662h-3.771v-3.886h12.129v3.887z" fill="#2c82e8"/><path data-name="패스 24" d="M154.376 92.327a2.417 2.417 0 11-2.417-2.417 2.417 2.417 0 012.417 2.417" fill="#2c82e8"/></g></svg>