<svg xmlns="http://www.w3.org/2000/svg" width="220" height="100" viewBox="0 0 220 100"><defs><clipPath id="a"><path data-name="사각형 1" d="M0 0h171.769v63.699H0z" fill="none"/></clipPath></defs><path d="M0 0h220v100H0z" fill="none"/><g data-name="그룹 2" transform="translate(24 18)" clip-path="url(#a)"><path data-name="패스 8" d="M162.404 28.556c-4.227-1.339-6.535-2.108-6.535-3.571 0-1.607 2.445-2.561 5.056-2.561a16.251 16.251 0 013.936.522.2.2 0 01.048.005 4 4 0 00.873.1 3.869 3.869 0 003.76-2.97l.015-.005.728-2.569a16.743 16.743 0 00-1.29-.508 25.963 25.963 0 00-5.267-1.114 29.261 29.261 0 00-3.159-.172c-8.5 0-13.991 4.411-13.991 10.295-.074 3.633 2.677 7.143 9.772 9.313 4.016 1.217 6.044 1.979 6.044 3.564 0 1.609-2.312 2.626-5.551 2.626a17.938 17.938 0 01-3.532-.407c-1.409-.3-3.936-1.154-3.936-1.154a15.388 15.388 0 01-1.746-.8l-.925 3.38a7.361 7.361 0 00-.162 1.147 3.889 3.889 0 002.711 3.705c.133.034.274.067.414.1a30.182 30.182 0 007.179.845c9.856 0 14.927-4.327 14.927-10.132-.085-4.6-2.814-7.6-9.365-9.642"/><path data-name="패스 9" d="M9.457 18.727a1.982 1.982 0 00-.352-.033L0 17.76v6.029a1.739 1.739 0 001.675 1.739.226.226 0 00.078.013 1.587 1.587 0 00.425-.059l8.673-.888v-4.156a1.749 1.749 0 00-1.394-1.711m4.756-8.954L8.433 2.68 4.164 6.944a1.745 1.745 0 00-.037 2.41.194.194 0 00.037.056 1.714 1.714 0 00.344.26l6.772 5.507 2.933-2.931a1.781 1.781 0 000-2.472M20.2 0a1.737 1.737 0 00-1.734 1.668c0 .03-.008.048-.008.076a1.839 1.839 0 00.055.427l.891 8.681h4.15a1.754 1.754 0 001.709-1.395A1.631 1.631 0 0025.3 9.1l.933-9.1z"/><path data-name="패스 10" d="M71.717 19.279a12.37 12.37 0 00-8.1-3.386 14.611 14.611 0 00-9.031 2.584v-.1a1.748 1.748 0 00-1.746-1.751h-7.23v31.255h5.1a3.879 3.879 0 003.88-3.878V28.81a4.847 4.847 0 011.6-3.632 5.818 5.818 0 014.216-1.531 5.565 5.565 0 014.221 1.656 5.446 5.446 0 011.676 3.634v18.944h4.886a3.88 3.88 0 003.884-3.878V29.18q0-6.766-3.355-9.9"/><path data-name="패스 11" d="M143.124 31.509c-.215-6.066-1.6-10.206-4.142-12.418a12.193 12.193 0 00-8.167-3.331 12.443 12.443 0 00-7.833 2.715v-.1a1.752 1.752 0 00-1.753-1.752h-7.216v47.076l6.391-2.981.433-.206a4.11 4.11 0 002.149-3.613V45.665c1.524 1.806 3.968 2.731 7.353 2.774a12.454 12.454 0 009.109-3.881c2.685-2.63 3.909-6.968 3.68-13.048m-8.958 1.05c-.052 3.331-.677 5.516-1.872 6.58a5.431 5.431 0 01-3.824 1.546q-2-.061-5.489-2.652v-12.17a9.374 9.374 0 015.489-2.164 5.452 5.452 0 014.09 1.966q1.67 1.916 1.606 6.894"/><path data-name="패스 12" d="M104.567 18.41q-3.944-2.521-10.5-2.4a26.993 26.993 0 00-5.056.551 24.409 24.409 0 00-5.348 1.752c-.514.24-1.024.494-1.527.775l1.609 2.713.085.146a3.863 3.863 0 003.336 1.91 3.742 3.742 0 001.276-.222.671.671 0 00.078-.023 16.072 16.072 0 014.6-.9c2.677-.115 4.46.228 5.355 1.052a3.752 3.752 0 011.336 2.822v1.729c-.976-.727-3.106-1.148-6.361-1.23a19.326 19.326 0 00-9.3 2.093 8.182 8.182 0 00-4.619 7.558 10.167 10.167 0 003.418 8.493 12.9 12.9 0 008.566 3.209 12.245 12.245 0 008.3-2.774v.006a4.134 4.134 0 003.654 2.21h5.048V26.961c0-4.016-1.32-6.858-3.946-8.551M89.977 40.376a3.478 3.478 0 01-1.468-3.138 3.394 3.394 0 011.8-3.015 7.737 7.737 0 014.272-.852 12.62 12.62 0 015.23 1.461v3.7a7.871 7.871 0 01-5.422 2.822 6.892 6.892 0 01-4.416-.974"/><path data-name="패스 13" d="M32.303 28.556c-4.223-1.339-6.532-2.108-6.532-3.571 0-1.607 2.448-2.561 5.056-2.561a16.268 16.268 0 013.935.522.3.3 0 01.052.005 3.856 3.856 0 004.641-2.87l.007-.005.725-2.569a16.004 16.004 0 00-1.291-.508 25.911 25.911 0 00-5.266-1.114 29.357 29.357 0 00-3.155-.172c-8.514 0-14 4.411-14 10.295-.067 3.633 2.689 7.143 9.79 9.313 4.009 1.217 6.029 1.979 6.029 3.564 0 1.609-2.308 2.626-5.552 2.626a17.938 17.938 0 01-3.528-.407c-1.409-.3-3.943-1.154-3.943-1.154a15.75 15.75 0 01-1.734-.8l-.929 3.38a7.338 7.338 0 00-.166 1.145 3.894 3.894 0 002.711 3.705l.414.1a30.2 30.2 0 007.175.845c9.857 0 14.931-4.327 14.931-10.132-.089-4.6-2.814-7.6-9.368-9.642"/></g></svg>